<svg xmlns="http://www.w3.org/2000/svg" x="0px" y="0px" width="100" height="100" viewBox="0 0 64 64">
<path d="M 32 10 C 18.215 10 7 18.950125 7 29.953125 C 7 36.826125 11.346375 43.104953 18.484375 46.751953 C 16.447375 50.185953 14.503469 52.951375 14.480469 52.984375 C 14.027469 53.628375 13.994484 54.47825 14.396484 55.15625 C 14.760484 55.76725 15.417188 56.136719 16.117188 56.136719 C 16.193188 56.136719 16.269703 56.132047 16.345703 56.123047 C 16.606703 56.093047 22.648578 55.345797 30.017578 49.841797 C 30.689578 49.884797 31.354 49.90625 32 49.90625 C 45.785 49.90625 57 40.956125 57 29.953125 C 57 18.950125 45.785 10 32 10 z M 32 14 C 43.579 14 53 21.156125 53 29.953125 C 53 38.750125 43.579 45.90625 32 45.90625 C 31.222 45.90625 30.408984 45.871828 29.583984 45.798828 C 29.083984 45.752828 28.581594 45.900937 28.183594 46.210938 C 25.435594 48.341937 22.881312 49.723328 20.820312 50.611328 C 21.535312 49.459328 22.307641 48.167219 23.056641 46.824219 C 23.336641 46.325219 23.388219 45.729453 23.199219 45.189453 C 23.010219 44.649453 22.599312 44.217 22.070312 44 C 15.241313 41.197 11 35.813125 11 29.953125 C 11 21.156125 20.421 14 32 14 z M 32 20 C 30.343 20 29 21.343 29 23 C 29 24.657 30.343 26 32 26 C 33.657 26 35 24.657 35 23 C 35 21.343 33.657 20 32 20 z M 32 29 C 30.895 29 30 29.896 30 31 L 30 39 C 30 40.104 30.895 41 32 41 C 33.105 41 34 40.104 34 39 L 34 31 C 34 29.896 33.105 29 32 29 z"></path>
</svg>