<?xml version="1.0" encoding="UTF-8" standalone="no" ?>
<!DOCTYPE svg PUBLIC "-//W3C//DTD SVG 1.1//EN" "http://www.w3.org/Graphics/SVG/1.1/DTD/svg11.dtd">
<svg xmlns="http://www.w3.org/2000/svg" xmlns:xlink="http://www.w3.org/1999/xlink" version="1.1" width="1080" height="1080" viewBox="0 0 1080 1080" xml:space="preserve">
<desc>Created with Fabric.js 5.2.4</desc>
<defs>
</defs>
<g transform="matrix(1 0 0 1 540 540)" id="ebc887ea-1ef5-4b1b-a806-75d4d7f0db05"  >
</g>
<g transform="matrix(1 0 0 1 540 540)" id="64ce4a6f-a35e-4138-ac11-501e86e80d8c"  >
<rect style="stroke: none; stroke-width: 1; stroke-dasharray: none; stroke-linecap: butt; stroke-dashoffset: 0; stroke-linejoin: miter; stroke-miterlimit: 4; fill: rgb(255,255,255); fill-rule: nonzero; opacity: 1; visibility: hidden;" vector-effect="non-scaling-stroke"  x="-540" y="-540" rx="0" ry="0" width="1080" height="1080" />
</g>
<g transform="matrix(1 0 0 1 503.87 540)"  >
<g style="" vector-effect="non-scaling-stroke"   >
		<g transform="matrix(1 0 0 1 0 0)"  >
<path style="stroke: none; stroke-width: 1; stroke-dasharray: none; stroke-linecap: butt; stroke-dashoffset: 0; stroke-linejoin: miter; stroke-miterlimit: 4; fill: rgb(17,6,56); fill-rule: evenodd; opacity: 1;" vector-effect="non-scaling-stroke"  transform=" translate(-12, -12)" d="M 12 2.5 C 6.75329 2.5 2.5 6.75329 2.5 12 C 2.5 17.2467 6.75329 21.5 12 21.5 C 17.2467 21.5 21.5 17.2467 21.5 12 C 21.5 10.0302 20.901 8.20152 19.875 6.68465 L 17.2773 8.41606 C 17.0475 8.56921 16.7371 8.50708 16.5839 8.2773 C 16.4308 8.04752 16.4929 7.73709 16.7227 7.58394 L 19.723399999999998 5.58394 C 19.9441 5.43686 20.2412 5.48766 20.400499999999997 5.6997100000000005 C 21.7187 7.454650000000001 22.499999999999996 9.636800000000001 22.499999999999996 12 C 22.499999999999996 17.799 17.798999999999996 22.5 11.999999999999996 22.5 C 6.201009999999997 22.5 1.4999999999999964 17.799 1.4999999999999964 12 C 1.4999999999999964 6.20101 6.201009999999997 1.5 11.999999999999996 1.5 C 13.911699999999996 1.5 15.705399999999997 2.01133 17.250399999999996 2.90502 C 17.489399999999996 3.04329 17.571099999999994 3.34915 17.432799999999997 3.58818 C 17.294499999999996 3.82722 16.988699999999998 3.9089 16.749599999999997 3.77062 C 15.352799999999997 2.96261 13.731199999999998 2.5 11.999999999999996 2.5 Z" stroke-linecap="round" />
</g>
		<g transform="matrix(1 0 0 1 0 0)"  >
<path style="stroke: none; stroke-width: 1; stroke-dasharray: none; stroke-linecap: butt; stroke-dashoffset: 0; stroke-linejoin: miter; stroke-miterlimit: 4; fill: rgb(17,6,56); fill-rule: evenodd; opacity: 1;" vector-effect="non-scaling-stroke"  transform=" translate(-12, -12)" d="M 12 8.5 C 10.067 8.5 8.5 10.067 8.5 12 C 8.5 13.933 10.067 15.5 12 15.5 C 13.933 15.5 15.5 13.933 15.5 12 C 15.5 10.067 13.933 8.5 12 8.5 Z M 7.5 12 C 7.5 9.51472 9.51472 7.5 12 7.5 C 14.4853 7.5 16.5 9.51472 16.5 12 C 16.5 14.4853 14.4853 16.5 12 16.5 C 9.51472 16.5 7.5 14.4853 7.5 12 Z" stroke-linecap="round" />
</g>
		<g transform="matrix(1 0 0 1 0 0)"  >
<path style="stroke: none; stroke-width: 1; stroke-dasharray: none; stroke-linecap: butt; stroke-dashoffset: 0; stroke-linejoin: miter; stroke-miterlimit: 4; fill: rgb(243,196,97); fill-rule: evenodd; opacity: 1;" vector-effect="non-scaling-stroke"  transform=" translate(-12, -12)" d="M 12 9.5 C 10.619299999999999 9.5 9.5 10.619299999999999 9.5 12 C 9.5 13.380700000000001 10.619299999999999 14.5 12 14.5 C 13.380700000000001 14.5 14.5 13.380700000000001 14.5 12 C 14.5 10.619299999999999 13.380700000000001 9.5 12 9.5 Z" stroke-linecap="round" />
</g>
</g>
</g>
<g transform="matrix(1 0 0 1 540 540)" style="" id="e5a22740-a325-41e6-9853-2036f0ab3b36"  >
		<text xml:space="preserve" font-family="Alegreya" font-size="9" font-style="normal" font-weight="400" style="stroke: none; stroke-width: 1; stroke-dasharray: none; stroke-linecap: butt; stroke-dashoffset: 0; stroke-linejoin: miter; stroke-miterlimit: 4; fill: rgb(0,0,0); fill-rule: nonzero; opacity: 1; white-space: pre;" ><tspan x="-21.26" y="2.83" style="white-space: pre; "> mousiqiyyi</tspan></text>
</g>
</svg>