<svg xmlns="http://www.w3.org/2000/svg" viewBox="0 0 24 24" id="groove"><g fill="#110638" fill-rule="evenodd"><path d="M12,2.5c-5.24671,0 -9.5,4.25329 -9.5,9.5c0,5.2467 4.25329,9.5 9.5,9.5c5.2467,0 9.5,-4.2533 9.5,-9.5c0,-1.9698 -0.599,-3.79848 -1.625,-5.31535l-2.5977,1.73141c-0.2298,0.15315 -0.5402,0.09102 -0.6934,-0.13876c-0.1531,-0.22978 -0.091,-0.54021 0.1388,-0.69336l3.0007,-2c0.2207,-0.14708 0.5178,-0.09628 0.6771,0.11577c1.3182,1.75494 2.0995,3.93709 2.0995,6.30029c0,5.799 -4.701,10.5 -10.5,10.5c-5.79899,0 -10.5,-4.701 -10.5,-10.5c0,-5.79899 4.70101,-10.5 10.5,-10.5c1.9117,0 3.7054,0.51133 5.2504,1.40502c0.239,0.13827 0.3207,0.44413 0.1824,0.68316c-0.1383,0.23904 -0.4441,0.32072 -0.6832,0.18244c-1.3968,-0.80801 -3.0184,-1.27062 -4.7496,-1.27062Z"></path><path d="M12,8.5c-1.933,0 -3.5,1.567 -3.5,3.5c0,1.933 1.567,3.5 3.5,3.5c1.933,0 3.5,-1.567 3.5,-3.5c0,-1.933 -1.567,-3.5 -3.5,-3.5Zm-4.5,3.5c0,-2.48528 2.01472,-4.5 4.5,-4.5c2.4853,0 4.5,2.01472 4.5,4.5c0,2.4853 -2.0147,4.5 -4.5,4.5c-2.48528,0 -4.5,-2.0147 -4.5,-4.5Z"></path><path fill="#F3C461" d="M12,9.5c-1.3807,0 -2.5,1.1193 -2.5,2.5c0,1.3807 1.1193,2.5 2.5,2.5c1.3807,0 2.5,-1.1193 2.5,-2.5c0,-1.3807 -1.1193,-2.5 -2.5,-2.5Z"></path></g></svg>